<svg width="236" height="246" viewBox="0 0 118 123" fill="none" xmlns="http://www.w3.org/2000/svg">
<g clip-path="url(#clip0_486_746)">
<path d="M78.2109 1.5V23.52C78.2109 32.61 85.5309 39.99 94.5609 39.99H116.421" stroke="#000" stroke-width="5" stroke-linecap="round" stroke-linejoin="round"/>
<path d="M21.6504 57.06V104.18C21.6504 113.27 28.9704 120.65 38.0004 120.65H100.08C109.11 120.65 116.43 113.28 116.43 104.18V39.98L78.2104 1.5H37.9904C30.4004 1.5 24.0204 6.71 22.1804 13.78" stroke="#000" stroke-width="5" stroke-linecap="round" stroke-linejoin="round"/>
<path d="M54.8307 88.4501L67.6207 94.8501L64.5307 80.8801C64.1007 78.9401 63.2507 77.1201 62.0307 75.5601L14.8307 15.0001C12.3007 11.7501 7.62069 11.1701 4.37069 13.7001C1.12069 16.2301 0.540686 20.9101 3.07069 24.1601L50.2807 84.7301C51.5007 86.3001 53.0607 87.5701 54.8307 88.4601V88.4501Z" stroke="#000" stroke-width="3" stroke-linecap="round" stroke-linejoin="round"/>
<path d="M17.2209 18.0601L6.21094 26.6401" stroke="#000" stroke-width="5" stroke-linecap="round" stroke-linejoin="round"/>
<path d="M22.3811 24.6802L11.3711 33.2602" stroke="#000" stroke-width="5" stroke-linecap="round" stroke-linejoin="round"/>
<path d="M63.0811 78.5703L52.3711 86.8603" stroke="#000" stroke-width="5" stroke-linecap="round" stroke-linejoin="round"/>
<path d="M66.7798 91L64.2598 93.17" stroke="#000" stroke-width="5" stroke-linecap="round" stroke-linejoin="round"/>
</g>
<defs>
<clipPath id="clip0_486_746">
<rect width="117.91" height="122.15" fill="white"/>
</clipPath>
</defs>
</svg>
